<mxfile host="app.diagrams.net" agent="Mozilla/5.0 (Macintosh; Intel Mac OS X 10_15_7) AppleWebKit/537.36 (KHTML, like Gecko) Chrome/139.0.0.0 Safari/537.36" version="28.0.7">
  <diagram name="Page-1" id="XLxUug_JaUTgmGYlgbGc">
    <mxGraphModel dx="1042" dy="1726" grid="1" gridSize="10" guides="1" tooltips="1" connect="1" arrows="1" fold="1" page="1" pageScale="1" pageWidth="850" pageHeight="1100" math="0" shadow="0">
      <root>
        <mxCell id="0" />
        <mxCell id="1" parent="0" />
        <mxCell id="kn9Mtql1cBcwYiJTihJY-21" value="DashboardTab" style="swimlane;fontStyle=1;align=center;verticalAlign=top;childLayout=stackLayout;horizontal=1;startSize=26;horizontalStack=0;resizeParent=1;resizeParentMax=0;resizeLast=0;collapsible=1;marginBottom=0;whiteSpace=wrap;html=1;" parent="1" vertex="1">
          <mxGeometry x="150" y="400" width="280" height="520" as="geometry" />
        </mxCell>
        <mxCell id="EqVA8mEmJYvjOfU4ljU_-19" value="self.dbConn&amp;nbsp;&amp;nbsp;&lt;span style=&quot;color: light-dark(rgb(0, 255, 0), rgb(0, 255, 0));&quot;&gt;shared&amp;nbsp;&lt;/span&gt;&lt;span style=&quot;color: rgb(0, 255, 0);&quot;&gt;&lt;font style=&quot;color: light-dark(rgb(0, 255, 0), rgb(0, 255, 0));&quot;&gt;reference&lt;/font&gt;&lt;/span&gt;&lt;span style=&quot;color: rgb(0, 255, 0);&quot;&gt;&amp;nbsp;&lt;/span&gt;&lt;span style=&quot;color: light-dark(rgb(0, 255, 0), rgb(0, 255, 0));&quot;&gt;DB connection&lt;/span&gt;" style="text;strokeColor=none;fillColor=none;align=left;verticalAlign=top;spacingLeft=4;spacingRight=4;overflow=hidden;rotatable=0;points=[[0,0.5],[1,0.5]];portConstraint=eastwest;whiteSpace=wrap;html=1;" vertex="1" parent="kn9Mtql1cBcwYiJTihJY-21">
          <mxGeometry y="26" width="280" height="26" as="geometry" />
        </mxCell>
        <mxCell id="kn9Mtql1cBcwYiJTihJY-22" value="self.reRender" style="text;strokeColor=none;fillColor=none;align=left;verticalAlign=top;spacingLeft=4;spacingRight=4;overflow=hidden;rotatable=0;points=[[0,0.5],[1,0.5]];portConstraint=eastwest;whiteSpace=wrap;html=1;" parent="kn9Mtql1cBcwYiJTihJY-21" vertex="1">
          <mxGeometry y="52" width="280" height="26" as="geometry" />
        </mxCell>
        <mxCell id="kn9Mtql1cBcwYiJTihJY-23" value="" style="line;strokeWidth=1;fillColor=none;align=left;verticalAlign=middle;spacingTop=-1;spacingLeft=3;spacingRight=3;rotatable=0;labelPosition=right;points=[];portConstraint=eastwest;strokeColor=inherit;" parent="kn9Mtql1cBcwYiJTihJY-21" vertex="1">
          <mxGeometry y="78" width="280" height="8" as="geometry" />
        </mxCell>
        <mxCell id="EqVA8mEmJYvjOfU4ljU_-1" value="__init__(dbConn)" style="text;strokeColor=none;fillColor=none;align=left;verticalAlign=top;spacingLeft=4;spacingRight=4;overflow=hidden;rotatable=0;points=[[0,0.5],[1,0.5]];portConstraint=eastwest;whiteSpace=wrap;html=1;" vertex="1" parent="kn9Mtql1cBcwYiJTihJY-21">
          <mxGeometry y="86" width="280" height="34" as="geometry" />
        </mxCell>
        <mxCell id="EqVA8mEmJYvjOfU4ljU_-21" value="initUI()" style="text;strokeColor=none;fillColor=none;align=left;verticalAlign=top;spacingLeft=4;spacingRight=4;overflow=hidden;rotatable=0;points=[[0,0.5],[1,0.5]];portConstraint=eastwest;whiteSpace=wrap;html=1;" vertex="1" parent="kn9Mtql1cBcwYiJTihJY-21">
          <mxGeometry y="120" width="280" height="34" as="geometry" />
        </mxCell>
        <mxCell id="EqVA8mEmJYvjOfU4ljU_-20" value="render()" style="text;strokeColor=none;fillColor=none;align=left;verticalAlign=top;spacingLeft=4;spacingRight=4;overflow=hidden;rotatable=0;points=[[0,0.5],[1,0.5]];portConstraint=eastwest;whiteSpace=wrap;html=1;" vertex="1" parent="kn9Mtql1cBcwYiJTihJY-21">
          <mxGeometry y="154" width="280" height="34" as="geometry" />
        </mxCell>
        <mxCell id="EqVA8mEmJYvjOfU4ljU_-22" value="renderChartSection()" style="text;strokeColor=none;fillColor=none;align=left;verticalAlign=top;spacingLeft=4;spacingRight=4;overflow=hidden;rotatable=0;points=[[0,0.5],[1,0.5]];portConstraint=eastwest;whiteSpace=wrap;html=1;" vertex="1" parent="kn9Mtql1cBcwYiJTihJY-21">
          <mxGeometry y="188" width="280" height="34" as="geometry" />
        </mxCell>
        <mxCell id="EqVA8mEmJYvjOfU4ljU_-24" value="renderChartIntervalOptions()" style="text;strokeColor=none;fillColor=none;align=left;verticalAlign=top;spacingLeft=4;spacingRight=4;overflow=hidden;rotatable=0;points=[[0,0.5],[1,0.5]];portConstraint=eastwest;whiteSpace=wrap;html=1;" vertex="1" parent="kn9Mtql1cBcwYiJTihJY-21">
          <mxGeometry y="222" width="280" height="34" as="geometry" />
        </mxCell>
        <mxCell id="EqVA8mEmJYvjOfU4ljU_-23" value="renderStatsSection()" style="text;strokeColor=none;fillColor=none;align=left;verticalAlign=top;spacingLeft=4;spacingRight=4;overflow=hidden;rotatable=0;points=[[0,0.5],[1,0.5]];portConstraint=eastwest;whiteSpace=wrap;html=1;" vertex="1" parent="kn9Mtql1cBcwYiJTihJY-21">
          <mxGeometry y="256" width="280" height="34" as="geometry" />
        </mxCell>
        <mxCell id="kn9Mtql1cBcwYiJTihJY-24" value="handleSaveToSvg()" style="text;strokeColor=none;fillColor=none;align=left;verticalAlign=top;spacingLeft=4;spacingRight=4;overflow=hidden;rotatable=0;points=[[0,0.5],[1,0.5]];portConstraint=eastwest;whiteSpace=wrap;html=1;" parent="kn9Mtql1cBcwYiJTihJY-21" vertex="1">
          <mxGeometry y="290" width="280" height="230" as="geometry" />
        </mxCell>
        <mxCell id="kn9Mtql1cBcwYiJTihJY-28" value="MainWindow" style="swimlane;fontStyle=1;align=center;verticalAlign=top;childLayout=stackLayout;horizontal=1;startSize=26;horizontalStack=0;resizeParent=1;resizeParentMax=0;resizeLast=0;collapsible=1;marginBottom=0;whiteSpace=wrap;html=1;" parent="1" vertex="1">
          <mxGeometry x="150" y="920" width="910" height="284" as="geometry" />
        </mxCell>
        <mxCell id="kn9Mtql1cBcwYiJTihJY-29" value="&lt;font style=&quot;&quot;&gt;&lt;span&gt;&lt;font style=&quot;color: light-dark(rgb(255, 255, 255), rgb(255, 255, 255));&quot;&gt;self.dbConn&amp;nbsp;&amp;nbsp;&lt;/font&gt;&lt;/span&gt;&lt;font style=&quot;color: rgb(255, 255, 255);&quot;&gt;&lt;span style=&quot;color: light-dark(rgb(0, 255, 0), rgb(0, 255, 0));&quot;&gt;shared&amp;nbsp;&lt;/span&gt;&lt;span style=&quot;color: rgb(0, 255, 0);&quot;&gt;&lt;font style=&quot;color: light-dark(rgb(0, 255, 0), rgb(0, 255, 0));&quot;&gt;reference&lt;/font&gt;&lt;/span&gt;&lt;span style=&quot;color: rgb(0, 255, 0);&quot;&gt;&amp;nbsp;&lt;/span&gt;&lt;span style=&quot;color: light-dark(rgb(0, 255, 0), rgb(0, 255, 0));&quot;&gt;DB connection.&lt;/span&gt;&lt;/font&gt;&lt;font style=&quot;color: light-dark(rgb(255, 255, 255), rgb(255, 255, 255));&quot;&gt;&amp;nbsp;MainWindow is responsible for closing connection when exiting&lt;/font&gt;&lt;/font&gt;" style="text;strokeColor=none;fillColor=none;align=left;verticalAlign=top;spacingLeft=4;spacingRight=4;overflow=hidden;rotatable=0;points=[[0,0.5],[1,0.5]];portConstraint=eastwest;whiteSpace=wrap;html=1;" parent="kn9Mtql1cBcwYiJTihJY-28" vertex="1">
          <mxGeometry y="26" width="910" height="26" as="geometry" />
        </mxCell>
        <mxCell id="MBBZY2xNjJgipTJ3-euZ-7" value="&lt;font style=&quot;&quot;&gt;&lt;font style=&quot;color: light-dark(rgb(255, 255, 255), rgb(255, 255, 255));&quot;&gt;self.MLModel&lt;/font&gt;&lt;font style=&quot;color: light-dark(rgb(255, 0, 0), rgb(255, 0, 0));&quot;&gt;&amp;nbsp; &lt;/font&gt;&lt;font style=&quot;color: light-dark(rgb(255, 0, 0), rgb(255, 0, 0));&quot;&gt;&lt;span&gt;shared reference to ML predictor&lt;/span&gt;&lt;/font&gt;&lt;/font&gt;" style="text;strokeColor=none;fillColor=none;align=left;verticalAlign=top;spacingLeft=4;spacingRight=4;overflow=hidden;rotatable=0;points=[[0,0.5],[1,0.5]];portConstraint=eastwest;whiteSpace=wrap;html=1;" parent="kn9Mtql1cBcwYiJTihJY-28" vertex="1">
          <mxGeometry y="52" width="910" height="26" as="geometry" />
        </mxCell>
        <mxCell id="EqVA8mEmJYvjOfU4ljU_-14" value="&lt;font style=&quot;&quot;&gt;&lt;font style=&quot;color: light-dark(rgb(255, 255, 255), rgb(255, 255, 255));&quot;&gt;self.dashboardTab&amp;nbsp;&lt;font style=&quot;color: light-dark(rgb(255, 255, 0), rgb(255, 255, 0));&quot;&gt;shared reference to DashboardTab&lt;/font&gt;&amp;nbsp;&lt;/font&gt;&lt;/font&gt;" style="text;strokeColor=none;fillColor=none;align=left;verticalAlign=top;spacingLeft=4;spacingRight=4;overflow=hidden;rotatable=0;points=[[0,0.5],[1,0.5]];portConstraint=eastwest;whiteSpace=wrap;html=1;" vertex="1" parent="kn9Mtql1cBcwYiJTihJY-28">
          <mxGeometry y="78" width="910" height="26" as="geometry" />
        </mxCell>
        <mxCell id="EqVA8mEmJYvjOfU4ljU_-15" value="&lt;font style=&quot;&quot;&gt;&lt;font style=&quot;color: light-dark(rgb(255, 255, 255), rgb(255, 255, 255));&quot;&gt;self.databaseTab&amp;nbsp;&lt;font style=&quot;color: light-dark(rgb(255, 255, 0), rgb(255, 255, 0));&quot;&gt;shared reference to DatabaseTab&lt;/font&gt;&amp;nbsp;&lt;/font&gt;&lt;/font&gt;" style="text;strokeColor=none;fillColor=none;align=left;verticalAlign=top;spacingLeft=4;spacingRight=4;overflow=hidden;rotatable=0;points=[[0,0.5],[1,0.5]];portConstraint=eastwest;whiteSpace=wrap;html=1;" vertex="1" parent="kn9Mtql1cBcwYiJTihJY-28">
          <mxGeometry y="104" width="910" height="26" as="geometry" />
        </mxCell>
        <mxCell id="EqVA8mEmJYvjOfU4ljU_-18" value="&lt;font style=&quot;&quot;&gt;&lt;font style=&quot;color: light-dark(rgb(255, 255, 255), rgb(255, 255, 255));&quot;&gt;self.maintenanceTab&amp;nbsp;&lt;font style=&quot;color: light-dark(rgb(255, 255, 0), rgb(255, 255, 0));&quot;&gt;shared reference to maintenanceTab&lt;/font&gt;&amp;nbsp;&lt;/font&gt;&lt;/font&gt;" style="text;strokeColor=none;fillColor=none;align=left;verticalAlign=top;spacingLeft=4;spacingRight=4;overflow=hidden;rotatable=0;points=[[0,0.5],[1,0.5]];portConstraint=eastwest;whiteSpace=wrap;html=1;" vertex="1" parent="kn9Mtql1cBcwYiJTihJY-28">
          <mxGeometry y="130" width="910" height="26" as="geometry" />
        </mxCell>
        <mxCell id="kn9Mtql1cBcwYiJTihJY-30" value="" style="line;strokeWidth=1;fillColor=none;align=left;verticalAlign=middle;spacingTop=-1;spacingLeft=3;spacingRight=3;rotatable=0;labelPosition=right;points=[];portConstraint=eastwest;strokeColor=inherit;" parent="kn9Mtql1cBcwYiJTihJY-28" vertex="1">
          <mxGeometry y="156" width="910" height="8" as="geometry" />
        </mxCell>
        <mxCell id="kn9Mtql1cBcwYiJTihJY-31" value="__init__()" style="text;strokeColor=none;fillColor=none;align=left;verticalAlign=top;spacingLeft=4;spacingRight=4;overflow=hidden;rotatable=0;points=[[0,0.5],[1,0.5]];portConstraint=eastwest;whiteSpace=wrap;html=1;" parent="kn9Mtql1cBcwYiJTihJY-28" vertex="1">
          <mxGeometry y="164" width="910" height="30" as="geometry" />
        </mxCell>
        <mxCell id="kn9Mtql1cBcwYiJTihJY-32" value="initUI()" style="text;strokeColor=none;fillColor=none;align=left;verticalAlign=top;spacingLeft=4;spacingRight=4;overflow=hidden;rotatable=0;points=[[0,0.5],[1,0.5]];portConstraint=eastwest;whiteSpace=wrap;html=1;" parent="kn9Mtql1cBcwYiJTihJY-28" vertex="1">
          <mxGeometry y="194" width="910" height="30" as="geometry" />
        </mxCell>
        <mxCell id="MBBZY2xNjJgipTJ3-euZ-16" value="handleTabChanged(tabIndex)" style="text;strokeColor=none;fillColor=none;align=left;verticalAlign=top;spacingLeft=4;spacingRight=4;overflow=hidden;rotatable=0;points=[[0,0.5],[1,0.5]];portConstraint=eastwest;whiteSpace=wrap;html=1;" parent="kn9Mtql1cBcwYiJTihJY-28" vertex="1">
          <mxGeometry y="224" width="910" height="30" as="geometry" />
        </mxCell>
        <mxCell id="MBBZY2xNjJgipTJ3-euZ-15" value="closeEvent(event)" style="text;strokeColor=none;fillColor=none;align=left;verticalAlign=top;spacingLeft=4;spacingRight=4;overflow=hidden;rotatable=0;points=[[0,0.5],[1,0.5]];portConstraint=eastwest;whiteSpace=wrap;html=1;" parent="kn9Mtql1cBcwYiJTihJY-28" vertex="1">
          <mxGeometry y="254" width="910" height="30" as="geometry" />
        </mxCell>
        <mxCell id="kn9Mtql1cBcwYiJTihJY-33" value="DatabaseTab" style="swimlane;fontStyle=1;align=center;verticalAlign=top;childLayout=stackLayout;horizontal=1;startSize=26;horizontalStack=0;resizeParent=1;resizeParentMax=0;resizeLast=0;collapsible=1;marginBottom=0;whiteSpace=wrap;html=1;" parent="1" vertex="1">
          <mxGeometry x="760" y="400" width="300" height="520" as="geometry" />
        </mxCell>
        <mxCell id="kn9Mtql1cBcwYiJTihJY-34" value="self.dbConn&amp;nbsp;&lt;span style=&quot;color: light-dark(rgb(0, 255, 0), rgb(0, 255, 0));&quot;&gt;shared&amp;nbsp;&lt;/span&gt;&lt;span style=&quot;color: rgb(0, 255, 0);&quot;&gt;&lt;font style=&quot;color: light-dark(rgb(0, 255, 0), rgb(0, 255, 0));&quot;&gt;reference&lt;/font&gt;&lt;/span&gt;&lt;span style=&quot;color: rgb(0, 255, 0);&quot;&gt;&amp;nbsp;&lt;/span&gt;&lt;span style=&quot;color: light-dark(rgb(0, 255, 0), rgb(0, 255, 0));&quot;&gt;DB connection&lt;/span&gt;" style="text;strokeColor=none;fillColor=none;align=left;verticalAlign=top;spacingLeft=4;spacingRight=4;overflow=hidden;rotatable=0;points=[[0,0.5],[1,0.5]];portConstraint=eastwest;whiteSpace=wrap;html=1;" parent="kn9Mtql1cBcwYiJTihJY-33" vertex="1">
          <mxGeometry y="26" width="300" height="26" as="geometry" />
        </mxCell>
        <mxCell id="MBBZY2xNjJgipTJ3-euZ-9" value="&lt;font style=&quot;&quot;&gt;&lt;font style=&quot;color: light-dark(rgb(255, 255, 255), rgb(255, 255, 255));&quot;&gt;self.MLModel&lt;/font&gt;&lt;font style=&quot;color: light-dark(rgb(255, 0, 0), rgb(255, 0, 0));&quot;&gt;&amp;nbsp;&lt;/font&gt;&lt;font style=&quot;color: light-dark(rgb(255, 0, 0), rgb(255, 0, 0));&quot;&gt;&lt;span&gt;shared reference to ML predictor&lt;/span&gt;&lt;/font&gt;&lt;/font&gt;" style="text;strokeColor=none;fillColor=none;align=left;verticalAlign=top;spacingLeft=4;spacingRight=4;overflow=hidden;rotatable=0;points=[[0,0.5],[1,0.5]];portConstraint=eastwest;whiteSpace=wrap;html=1;" parent="kn9Mtql1cBcwYiJTihJY-33" vertex="1">
          <mxGeometry y="52" width="300" height="26" as="geometry" />
        </mxCell>
        <mxCell id="EqVA8mEmJYvjOfU4ljU_-8" value="&lt;font style=&quot;&quot;&gt;&lt;font style=&quot;color: light-dark(rgb(255, 255, 255), rgb(255, 255, 255));&quot;&gt;self.dashboardTab &lt;/font&gt;&lt;font style=&quot;color: light-dark(rgb(255, 255, 0), rgb(255, 255, 0));&quot;&gt;shared reference to DashboardTab&lt;/font&gt;&lt;/font&gt;" style="text;strokeColor=none;fillColor=none;align=left;verticalAlign=top;spacingLeft=4;spacingRight=4;overflow=hidden;rotatable=0;points=[[0,0.5],[1,0.5]];portConstraint=eastwest;whiteSpace=wrap;html=1;" vertex="1" parent="kn9Mtql1cBcwYiJTihJY-33">
          <mxGeometry y="78" width="300" height="26" as="geometry" />
        </mxCell>
        <mxCell id="EqVA8mEmJYvjOfU4ljU_-7" value="&lt;font style=&quot;&quot;&gt;&lt;font style=&quot;color: light-dark(rgb(255, 255, 255), rgb(255, 255, 255));&quot;&gt;self.reRender&lt;/font&gt;&lt;/font&gt;" style="text;strokeColor=none;fillColor=none;align=left;verticalAlign=top;spacingLeft=4;spacingRight=4;overflow=hidden;rotatable=0;points=[[0,0.5],[1,0.5]];portConstraint=eastwest;whiteSpace=wrap;html=1;" vertex="1" parent="kn9Mtql1cBcwYiJTihJY-33">
          <mxGeometry y="104" width="300" height="26" as="geometry" />
        </mxCell>
        <mxCell id="kn9Mtql1cBcwYiJTihJY-35" value="" style="line;strokeWidth=1;fillColor=none;align=left;verticalAlign=middle;spacingTop=-1;spacingLeft=3;spacingRight=3;rotatable=0;labelPosition=right;points=[];portConstraint=eastwest;strokeColor=inherit;" parent="kn9Mtql1cBcwYiJTihJY-33" vertex="1">
          <mxGeometry y="130" width="300" height="8" as="geometry" />
        </mxCell>
        <mxCell id="MBBZY2xNjJgipTJ3-euZ-27" value="__init__(dbConn, MLmodel, dashboardTab)" style="text;strokeColor=none;fillColor=none;align=left;verticalAlign=top;spacingLeft=4;spacingRight=4;overflow=hidden;rotatable=0;points=[[0,0.5],[1,0.5]];portConstraint=eastwest;whiteSpace=wrap;html=1;" parent="kn9Mtql1cBcwYiJTihJY-33" vertex="1">
          <mxGeometry y="138" width="300" height="34" as="geometry" />
        </mxCell>
        <mxCell id="kn9Mtql1cBcwYiJTihJY-36" value="initGeneralUI()" style="text;strokeColor=none;fillColor=none;align=left;verticalAlign=top;spacingLeft=4;spacingRight=4;overflow=hidden;rotatable=0;points=[[0,0.5],[1,0.5]];portConstraint=eastwest;whiteSpace=wrap;html=1;" parent="kn9Mtql1cBcwYiJTihJY-33" vertex="1">
          <mxGeometry y="172" width="300" height="34" as="geometry" />
        </mxCell>
        <mxCell id="EqVA8mEmJYvjOfU4ljU_-4" value="initFiltersUI()" style="text;strokeColor=none;fillColor=none;align=left;verticalAlign=top;spacingLeft=4;spacingRight=4;overflow=hidden;rotatable=0;points=[[0,0.5],[1,0.5]];portConstraint=eastwest;whiteSpace=wrap;html=1;" vertex="1" parent="kn9Mtql1cBcwYiJTihJY-33">
          <mxGeometry y="206" width="300" height="34" as="geometry" />
        </mxCell>
        <mxCell id="EqVA8mEmJYvjOfU4ljU_-5" value="initSortsUI()" style="text;strokeColor=none;fillColor=none;align=left;verticalAlign=top;spacingLeft=4;spacingRight=4;overflow=hidden;rotatable=0;points=[[0,0.5],[1,0.5]];portConstraint=eastwest;whiteSpace=wrap;html=1;" vertex="1" parent="kn9Mtql1cBcwYiJTihJY-33">
          <mxGeometry y="240" width="300" height="34" as="geometry" />
        </mxCell>
        <mxCell id="EqVA8mEmJYvjOfU4ljU_-6" value="renderFiltersUI()" style="text;strokeColor=none;fillColor=none;align=left;verticalAlign=top;spacingLeft=4;spacingRight=4;overflow=hidden;rotatable=0;points=[[0,0.5],[1,0.5]];portConstraint=eastwest;whiteSpace=wrap;html=1;" vertex="1" parent="kn9Mtql1cBcwYiJTihJY-33">
          <mxGeometry y="274" width="300" height="34" as="geometry" />
        </mxCell>
        <mxCell id="MBBZY2xNjJgipTJ3-euZ-28" value="renderTable()" style="text;strokeColor=none;fillColor=none;align=left;verticalAlign=top;spacingLeft=4;spacingRight=4;overflow=hidden;rotatable=0;points=[[0,0.5],[1,0.5]];portConstraint=eastwest;whiteSpace=wrap;html=1;" parent="kn9Mtql1cBcwYiJTihJY-33" vertex="1">
          <mxGeometry y="308" width="300" height="34" as="geometry" />
        </mxCell>
        <mxCell id="MBBZY2xNjJgipTJ3-euZ-29" value="restoreOldCellValue(ow_i, col_i, oldValue)" style="text;strokeColor=none;fillColor=none;align=left;verticalAlign=top;spacingLeft=4;spacingRight=4;overflow=hidden;rotatable=0;points=[[0,0.5],[1,0.5]];portConstraint=eastwest;whiteSpace=wrap;html=1;" parent="kn9Mtql1cBcwYiJTihJY-33" vertex="1">
          <mxGeometry y="342" width="300" height="34" as="geometry" />
        </mxCell>
        <mxCell id="MBBZY2xNjJgipTJ3-euZ-30" value="sqlSelectActions()" style="text;strokeColor=none;fillColor=none;align=left;verticalAlign=top;spacingLeft=4;spacingRight=4;overflow=hidden;rotatable=0;points=[[0,0.5],[1,0.5]];portConstraint=eastwest;whiteSpace=wrap;html=1;" parent="kn9Mtql1cBcwYiJTihJY-33" vertex="1">
          <mxGeometry y="376" width="300" height="34" as="geometry" />
        </mxCell>
        <mxCell id="MBBZY2xNjJgipTJ3-euZ-31" value="sqlUpdateActions(item)" style="text;strokeColor=none;fillColor=none;align=left;verticalAlign=top;spacingLeft=4;spacingRight=4;overflow=hidden;rotatable=0;points=[[0,0.5],[1,0.5]];portConstraint=eastwest;whiteSpace=wrap;html=1;" parent="kn9Mtql1cBcwYiJTihJY-33" vertex="1">
          <mxGeometry y="410" width="300" height="34" as="geometry" />
        </mxCell>
        <mxCell id="MBBZY2xNjJgipTJ3-euZ-32" value="sqlInsertActions()" style="text;strokeColor=none;fillColor=none;align=left;verticalAlign=top;spacingLeft=4;spacingRight=4;overflow=hidden;rotatable=0;points=[[0,0.5],[1,0.5]];portConstraint=eastwest;whiteSpace=wrap;html=1;" parent="kn9Mtql1cBcwYiJTihJY-33" vertex="1">
          <mxGeometry y="444" width="300" height="34" as="geometry" />
        </mxCell>
        <mxCell id="MBBZY2xNjJgipTJ3-euZ-33" value="sqlDeleteActions()" style="text;strokeColor=none;fillColor=none;align=left;verticalAlign=top;spacingLeft=4;spacingRight=4;overflow=hidden;rotatable=0;points=[[0,0.5],[1,0.5]];portConstraint=eastwest;whiteSpace=wrap;html=1;" parent="kn9Mtql1cBcwYiJTihJY-33" vertex="1">
          <mxGeometry y="478" width="300" height="42" as="geometry" />
        </mxCell>
        <mxCell id="kn9Mtql1cBcwYiJTihJY-39" value="&lt;font style=&quot;color: light-dark(rgb(255, 0, 0), rgb(255, 0, 0));&quot;&gt;ML_MODEL&lt;/font&gt;" style="swimlane;fontStyle=1;align=center;verticalAlign=top;childLayout=stackLayout;horizontal=1;startSize=26;horizontalStack=0;resizeParent=1;resizeParentMax=0;resizeLast=0;collapsible=1;marginBottom=0;whiteSpace=wrap;html=1;" parent="1" vertex="1">
          <mxGeometry x="1388" y="400" width="280" height="502" as="geometry" />
        </mxCell>
        <mxCell id="kn9Mtql1cBcwYiJTihJY-40" value="self.dbConn&amp;nbsp;&lt;font style=&quot;&quot;&gt;&lt;span style=&quot;color: light-dark(rgb(0, 255, 0), rgb(0, 255, 0));&quot;&gt;&lt;font style=&quot;&quot;&gt;shared&amp;nbsp;&lt;/font&gt;&lt;/span&gt;&lt;span style=&quot;color: rgb(0, 255, 0);&quot;&gt;&lt;font style=&quot;color: light-dark(rgb(0, 255, 0), rgb(0, 255, 0));&quot;&gt;reference&lt;/font&gt;&lt;/span&gt;&lt;span style=&quot;color: rgb(0, 255, 0);&quot;&gt;&amp;nbsp;&lt;/span&gt;&lt;span style=&quot;color: light-dark(rgb(0, 255, 0), rgb(0, 255, 0));&quot;&gt;&lt;font style=&quot;&quot;&gt;DB connection&lt;/font&gt;&lt;/span&gt;&lt;/font&gt;" style="text;strokeColor=none;fillColor=none;align=left;verticalAlign=top;spacingLeft=4;spacingRight=4;overflow=hidden;rotatable=0;points=[[0,0.5],[1,0.5]];portConstraint=eastwest;whiteSpace=wrap;html=1;" parent="kn9Mtql1cBcwYiJTihJY-39" vertex="1">
          <mxGeometry y="26" width="280" height="26" as="geometry" />
        </mxCell>
        <mxCell id="MBBZY2xNjJgipTJ3-euZ-6" value="self.model" style="text;strokeColor=none;fillColor=none;align=left;verticalAlign=top;spacingLeft=4;spacingRight=4;overflow=hidden;rotatable=0;points=[[0,0.5],[1,0.5]];portConstraint=eastwest;whiteSpace=wrap;html=1;" parent="kn9Mtql1cBcwYiJTihJY-39" vertex="1">
          <mxGeometry y="52" width="280" height="28" as="geometry" />
        </mxCell>
        <mxCell id="MBBZY2xNjJgipTJ3-euZ-34" value="self.predictionCache" style="text;strokeColor=none;fillColor=none;align=left;verticalAlign=top;spacingLeft=4;spacingRight=4;overflow=hidden;rotatable=0;points=[[0,0.5],[1,0.5]];portConstraint=eastwest;whiteSpace=wrap;html=1;" parent="kn9Mtql1cBcwYiJTihJY-39" vertex="1">
          <mxGeometry y="80" width="280" height="28" as="geometry" />
        </mxCell>
        <mxCell id="kn9Mtql1cBcwYiJTihJY-50" value="self.modelConfigFilepath&amp;nbsp;" style="text;strokeColor=none;fillColor=none;align=left;verticalAlign=top;spacingLeft=4;spacingRight=4;overflow=hidden;rotatable=0;points=[[0,0.5],[1,0.5]];portConstraint=eastwest;whiteSpace=wrap;html=1;" parent="kn9Mtql1cBcwYiJTihJY-39" vertex="1">
          <mxGeometry y="108" width="280" height="28" as="geometry" />
        </mxCell>
        <mxCell id="kn9Mtql1cBcwYiJTihJY-58" value="self.modelPklFilepath" style="text;strokeColor=none;fillColor=none;align=left;verticalAlign=top;spacingLeft=4;spacingRight=4;overflow=hidden;rotatable=0;points=[[0,0.5],[1,0.5]];portConstraint=eastwest;whiteSpace=wrap;html=1;" parent="kn9Mtql1cBcwYiJTihJY-39" vertex="1">
          <mxGeometry y="136" width="280" height="28" as="geometry" />
        </mxCell>
        <mxCell id="kn9Mtql1cBcwYiJTihJY-42" value="" style="line;strokeWidth=1;fillColor=none;align=left;verticalAlign=middle;spacingTop=-1;spacingLeft=3;spacingRight=3;rotatable=0;labelPosition=right;points=[];portConstraint=eastwest;strokeColor=inherit;" parent="kn9Mtql1cBcwYiJTihJY-39" vertex="1">
          <mxGeometry y="164" width="280" height="8" as="geometry" />
        </mxCell>
        <mxCell id="kn9Mtql1cBcwYiJTihJY-43" value="__init__(dbConn)" style="text;strokeColor=none;fillColor=none;align=left;verticalAlign=top;spacingLeft=4;spacingRight=4;overflow=hidden;rotatable=0;points=[[0,0.5],[1,0.5]];portConstraint=eastwest;whiteSpace=wrap;html=1;" parent="kn9Mtql1cBcwYiJTihJY-39" vertex="1">
          <mxGeometry y="172" width="280" height="30" as="geometry" />
        </mxCell>
        <mxCell id="kn9Mtql1cBcwYiJTihJY-45" value="predict(requestedIDs)" style="text;strokeColor=none;fillColor=none;align=left;verticalAlign=top;spacingLeft=4;spacingRight=4;overflow=hidden;rotatable=0;points=[[0,0.5],[1,0.5]];portConstraint=eastwest;whiteSpace=wrap;html=1;" parent="kn9Mtql1cBcwYiJTihJY-39" vertex="1">
          <mxGeometry y="202" width="280" height="30" as="geometry" />
        </mxCell>
        <mxCell id="kn9Mtql1cBcwYiJTihJY-49" value="incrementDbChangeCounter(x)" style="text;strokeColor=none;fillColor=none;align=left;verticalAlign=top;spacingLeft=4;spacingRight=4;overflow=hidden;rotatable=0;points=[[0,0.5],[1,0.5]];portConstraint=eastwest;whiteSpace=wrap;html=1;" parent="kn9Mtql1cBcwYiJTihJY-39" vertex="1">
          <mxGeometry y="232" width="280" height="30" as="geometry" />
        </mxCell>
        <mxCell id="kn9Mtql1cBcwYiJTihJY-47" value="markDirtyIDs(IDs)" style="text;strokeColor=none;fillColor=none;align=left;verticalAlign=top;spacingLeft=4;spacingRight=4;overflow=hidden;rotatable=0;points=[[0,0.5],[1,0.5]];portConstraint=eastwest;whiteSpace=wrap;html=1;" parent="kn9Mtql1cBcwYiJTihJY-39" vertex="1">
          <mxGeometry y="262" width="280" height="30" as="geometry" />
        </mxCell>
        <mxCell id="kn9Mtql1cBcwYiJTihJY-48" value="reset()" style="text;strokeColor=none;fillColor=none;align=left;verticalAlign=top;spacingLeft=4;spacingRight=4;overflow=hidden;rotatable=0;points=[[0,0.5],[1,0.5]];portConstraint=eastwest;whiteSpace=wrap;html=1;" parent="kn9Mtql1cBcwYiJTihJY-39" vertex="1">
          <mxGeometry y="292" width="280" height="30" as="geometry" />
        </mxCell>
        <mxCell id="EqVA8mEmJYvjOfU4ljU_-2" value="_train()" style="text;strokeColor=none;fillColor=none;align=left;verticalAlign=top;spacingLeft=4;spacingRight=4;overflow=hidden;rotatable=0;points=[[0,0.5],[1,0.5]];portConstraint=eastwest;whiteSpace=wrap;html=1;" vertex="1" parent="kn9Mtql1cBcwYiJTihJY-39">
          <mxGeometry y="322" width="280" height="30" as="geometry" />
        </mxCell>
        <mxCell id="MBBZY2xNjJgipTJ3-euZ-35" value="_readModelConfigFilepath()" style="text;strokeColor=none;fillColor=none;align=left;verticalAlign=top;spacingLeft=4;spacingRight=4;overflow=hidden;rotatable=0;points=[[0,0.5],[1,0.5]];portConstraint=eastwest;whiteSpace=wrap;html=1;" parent="kn9Mtql1cBcwYiJTihJY-39" vertex="1">
          <mxGeometry y="352" width="280" height="30" as="geometry" />
        </mxCell>
        <mxCell id="MBBZY2xNjJgipTJ3-euZ-36" value="_writeModelConfigFilepath(config)" style="text;strokeColor=none;fillColor=none;align=left;verticalAlign=top;spacingLeft=4;spacingRight=4;overflow=hidden;rotatable=0;points=[[0,0.5],[1,0.5]];portConstraint=eastwest;whiteSpace=wrap;html=1;" parent="kn9Mtql1cBcwYiJTihJY-39" vertex="1">
          <mxGeometry y="382" width="280" height="30" as="geometry" />
        </mxCell>
        <mxCell id="MBBZY2xNjJgipTJ3-euZ-37" value="_calculateRetrainLoadFactor()" style="text;strokeColor=none;fillColor=none;align=left;verticalAlign=top;spacingLeft=4;spacingRight=4;overflow=hidden;rotatable=0;points=[[0,0.5],[1,0.5]];portConstraint=eastwest;whiteSpace=wrap;html=1;" parent="kn9Mtql1cBcwYiJTihJY-39" vertex="1">
          <mxGeometry y="412" width="280" height="30" as="geometry" />
        </mxCell>
        <mxCell id="MBBZY2xNjJgipTJ3-euZ-38" value="_predictAndCacheEverything()" style="text;strokeColor=none;fillColor=none;align=left;verticalAlign=top;spacingLeft=4;spacingRight=4;overflow=hidden;rotatable=0;points=[[0,0.5],[1,0.5]];portConstraint=eastwest;whiteSpace=wrap;html=1;" parent="kn9Mtql1cBcwYiJTihJY-39" vertex="1">
          <mxGeometry y="442" width="280" height="30" as="geometry" />
        </mxCell>
        <mxCell id="MBBZY2xNjJgipTJ3-euZ-39" value="_predictAndCacheDirtyIDs(dirtyIDs)" style="text;strokeColor=none;fillColor=none;align=left;verticalAlign=top;spacingLeft=4;spacingRight=4;overflow=hidden;rotatable=0;points=[[0,0.5],[1,0.5]];portConstraint=eastwest;whiteSpace=wrap;html=1;" parent="kn9Mtql1cBcwYiJTihJY-39" vertex="1">
          <mxGeometry y="472" width="280" height="30" as="geometry" />
        </mxCell>
        <mxCell id="kn9Mtql1cBcwYiJTihJY-62" value="&lt;font style=&quot;color: light-dark(rgb(0, 255, 0), rgb(0, 255, 0));&quot;&gt;DB&lt;/font&gt;" style="shape=cylinder3;whiteSpace=wrap;html=1;boundedLbl=1;backgroundOutline=1;size=15;" parent="1" vertex="1">
          <mxGeometry x="565" y="-70" width="60" height="80" as="geometry" />
        </mxCell>
        <mxCell id="kn9Mtql1cBcwYiJTihJY-63" value="" style="endArrow=classic;html=1;rounded=0;exitX=0.145;exitY=1;exitDx=0;exitDy=-4.35;exitPerimeter=0;entryX=0.5;entryY=0;entryDx=0;entryDy=0;" parent="1" source="kn9Mtql1cBcwYiJTihJY-62" target="kn9Mtql1cBcwYiJTihJY-21" edge="1">
          <mxGeometry width="50" height="50" relative="1" as="geometry">
            <mxPoint x="870" y="445" as="sourcePoint" />
            <mxPoint x="350" y="390" as="targetPoint" />
          </mxGeometry>
        </mxCell>
        <mxCell id="kn9Mtql1cBcwYiJTihJY-65" value="" style="endArrow=classic;html=1;rounded=0;entryX=0.5;entryY=0;entryDx=0;entryDy=0;exitX=1;exitY=1;exitDx=0;exitDy=-15;exitPerimeter=0;" parent="1" source="kn9Mtql1cBcwYiJTihJY-62" target="kn9Mtql1cBcwYiJTihJY-39" edge="1">
          <mxGeometry width="50" height="50" relative="1" as="geometry">
            <mxPoint x="1449" y="240" as="sourcePoint" />
            <mxPoint x="950" y="494" as="targetPoint" />
          </mxGeometry>
        </mxCell>
        <mxCell id="kn9Mtql1cBcwYiJTihJY-66" value="SELECT" style="text;html=1;align=center;verticalAlign=middle;whiteSpace=wrap;rounded=0;" parent="1" vertex="1">
          <mxGeometry x="690" y="220" width="90" height="30" as="geometry" />
        </mxCell>
        <mxCell id="kn9Mtql1cBcwYiJTihJY-68" value="INSERT&lt;br&gt;UPDATE&lt;br&gt;DELETE" style="text;html=1;align=center;verticalAlign=middle;whiteSpace=wrap;rounded=0;" parent="1" vertex="1">
          <mxGeometry x="804" y="210" width="90" height="80" as="geometry" />
        </mxCell>
        <mxCell id="kn9Mtql1cBcwYiJTihJY-69" value="SELECT" style="text;html=1;align=center;verticalAlign=middle;whiteSpace=wrap;rounded=0;" parent="1" vertex="1">
          <mxGeometry x="400" y="220" width="90" height="30" as="geometry" />
        </mxCell>
        <mxCell id="MBBZY2xNjJgipTJ3-euZ-11" value="MaintenanceTab" style="swimlane;fontStyle=1;align=center;verticalAlign=top;childLayout=stackLayout;horizontal=1;startSize=26;horizontalStack=0;resizeParent=1;resizeParentMax=0;resizeLast=0;collapsible=1;marginBottom=0;whiteSpace=wrap;html=1;" parent="1" vertex="1">
          <mxGeometry x="430" y="400" width="330" height="520" as="geometry" />
        </mxCell>
        <mxCell id="MBBZY2xNjJgipTJ3-euZ-12" value="self.dbConn&amp;nbsp;&lt;span style=&quot;color: light-dark(rgb(0, 255, 0), rgb(0, 255, 0));&quot;&gt;shared&amp;nbsp;&lt;/span&gt;&lt;span style=&quot;color: rgb(0, 255, 0);&quot;&gt;&lt;font style=&quot;color: light-dark(rgb(0, 255, 0), rgb(0, 255, 0));&quot;&gt;reference&lt;/font&gt;&lt;/span&gt;&lt;span style=&quot;color: rgb(0, 255, 0);&quot;&gt;&amp;nbsp;&lt;/span&gt;&lt;span style=&quot;color: light-dark(rgb(0, 255, 0), rgb(0, 255, 0));&quot;&gt;DB connection&lt;/span&gt;" style="text;strokeColor=none;fillColor=none;align=left;verticalAlign=top;spacingLeft=4;spacingRight=4;overflow=hidden;rotatable=0;points=[[0,0.5],[1,0.5]];portConstraint=eastwest;whiteSpace=wrap;html=1;" parent="MBBZY2xNjJgipTJ3-euZ-11" vertex="1">
          <mxGeometry y="26" width="330" height="26" as="geometry" />
        </mxCell>
        <mxCell id="MBBZY2xNjJgipTJ3-euZ-22" value="&lt;font style=&quot;&quot;&gt;&lt;font style=&quot;color: light-dark(rgb(255, 255, 255), rgb(255, 255, 255));&quot;&gt;self.MLModel&lt;/font&gt;&lt;font style=&quot;color: light-dark(rgb(255, 0, 0), rgb(255, 0, 0));&quot;&gt;&amp;nbsp;&lt;/font&gt;&lt;font style=&quot;color: light-dark(rgb(255, 0, 0), rgb(255, 0, 0));&quot;&gt;&lt;span&gt;shared reference to ML predictor&lt;/span&gt;&lt;/font&gt;&lt;/font&gt;" style="text;strokeColor=none;fillColor=none;align=left;verticalAlign=top;spacingLeft=4;spacingRight=4;overflow=hidden;rotatable=0;points=[[0,0.5],[1,0.5]];portConstraint=eastwest;whiteSpace=wrap;html=1;" parent="MBBZY2xNjJgipTJ3-euZ-11" vertex="1">
          <mxGeometry y="52" width="330" height="26" as="geometry" />
        </mxCell>
        <mxCell id="EqVA8mEmJYvjOfU4ljU_-11" value="&lt;font style=&quot;&quot;&gt;&lt;font style=&quot;color: light-dark(rgb(255, 255, 255), rgb(255, 255, 255));&quot;&gt;self.dashboardTab&amp;nbsp;&lt;font style=&quot;color: light-dark(rgb(255, 255, 0), rgb(255, 255, 0));&quot;&gt;shared reference to DashboardTab&lt;/font&gt;&amp;nbsp;&lt;/font&gt;&lt;/font&gt;" style="text;strokeColor=none;fillColor=none;align=left;verticalAlign=top;spacingLeft=4;spacingRight=4;overflow=hidden;rotatable=0;points=[[0,0.5],[1,0.5]];portConstraint=eastwest;whiteSpace=wrap;html=1;" vertex="1" parent="MBBZY2xNjJgipTJ3-euZ-11">
          <mxGeometry y="78" width="330" height="26" as="geometry" />
        </mxCell>
        <mxCell id="EqVA8mEmJYvjOfU4ljU_-13" value="&lt;font style=&quot;&quot;&gt;&lt;font style=&quot;color: light-dark(rgb(255, 255, 255), rgb(255, 255, 255));&quot;&gt;self.databaseTab&amp;nbsp;&lt;font style=&quot;color: light-dark(rgb(255, 255, 0), rgb(255, 255, 0));&quot;&gt;shared reference to DatabaseTab&lt;/font&gt;&amp;nbsp;&lt;/font&gt;&lt;/font&gt;" style="text;strokeColor=none;fillColor=none;align=left;verticalAlign=top;spacingLeft=4;spacingRight=4;overflow=hidden;rotatable=0;points=[[0,0.5],[1,0.5]];portConstraint=eastwest;whiteSpace=wrap;html=1;" vertex="1" parent="MBBZY2xNjJgipTJ3-euZ-11">
          <mxGeometry y="104" width="330" height="26" as="geometry" />
        </mxCell>
        <mxCell id="MBBZY2xNjJgipTJ3-euZ-13" value="" style="line;strokeWidth=1;fillColor=none;align=left;verticalAlign=middle;spacingTop=-1;spacingLeft=3;spacingRight=3;rotatable=0;labelPosition=right;points=[];portConstraint=eastwest;strokeColor=inherit;" parent="MBBZY2xNjJgipTJ3-euZ-11" vertex="1">
          <mxGeometry y="130" width="330" height="8" as="geometry" />
        </mxCell>
        <mxCell id="MBBZY2xNjJgipTJ3-euZ-14" value="__init__(dbConn, MLmodel, dashboardTab, databaseTab)" style="text;strokeColor=none;fillColor=none;align=left;verticalAlign=top;spacingLeft=4;spacingRight=4;overflow=hidden;rotatable=0;points=[[0,0.5],[1,0.5]];portConstraint=eastwest;whiteSpace=wrap;html=1;" parent="MBBZY2xNjJgipTJ3-euZ-11" vertex="1">
          <mxGeometry y="138" width="330" height="34" as="geometry" />
        </mxCell>
        <mxCell id="MBBZY2xNjJgipTJ3-euZ-24" value="initUI()" style="text;strokeColor=none;fillColor=none;align=left;verticalAlign=top;spacingLeft=4;spacingRight=4;overflow=hidden;rotatable=0;points=[[0,0.5],[1,0.5]];portConstraint=eastwest;whiteSpace=wrap;html=1;" parent="MBBZY2xNjJgipTJ3-euZ-11" vertex="1">
          <mxGeometry y="172" width="330" height="30" as="geometry" />
        </mxCell>
        <mxCell id="MBBZY2xNjJgipTJ3-euZ-25" value="handleAppendFromCsv()" style="text;strokeColor=none;fillColor=none;align=left;verticalAlign=top;spacingLeft=4;spacingRight=4;overflow=hidden;rotatable=0;points=[[0,0.5],[1,0.5]];portConstraint=eastwest;whiteSpace=wrap;html=1;" parent="MBBZY2xNjJgipTJ3-euZ-11" vertex="1">
          <mxGeometry y="202" width="330" height="30" as="geometry" />
        </mxCell>
        <mxCell id="MBBZY2xNjJgipTJ3-euZ-26" value="handleClearDb()" style="text;strokeColor=none;fillColor=none;align=left;verticalAlign=top;spacingLeft=4;spacingRight=4;overflow=hidden;rotatable=0;points=[[0,0.5],[1,0.5]];portConstraint=eastwest;whiteSpace=wrap;html=1;" parent="MBBZY2xNjJgipTJ3-euZ-11" vertex="1">
          <mxGeometry y="232" width="330" height="288" as="geometry" />
        </mxCell>
        <mxCell id="MBBZY2xNjJgipTJ3-euZ-47" value="predict() -&amp;gt; load model.pkl" style="text;html=1;align=center;verticalAlign=middle;whiteSpace=wrap;rounded=0;" parent="1" vertex="1">
          <mxGeometry x="1779.5700000000002" y="620" width="148.87" height="30" as="geometry" />
        </mxCell>
        <mxCell id="MBBZY2xNjJgipTJ3-euZ-48" value="" style="endArrow=classic;html=1;rounded=0;" parent="1" edge="1">
          <mxGeometry width="50" height="50" relative="1" as="geometry">
            <mxPoint x="1678" y="600" as="sourcePoint" />
            <mxPoint x="2029" y="600" as="targetPoint" />
          </mxGeometry>
        </mxCell>
        <mxCell id="MBBZY2xNjJgipTJ3-euZ-49" value="" style="endArrow=classic;html=1;rounded=0;" parent="1" edge="1">
          <mxGeometry width="50" height="50" relative="1" as="geometry">
            <mxPoint x="2029" y="650" as="sourcePoint" />
            <mxPoint x="1678" y="648.37" as="targetPoint" />
          </mxGeometry>
        </mxCell>
        <mxCell id="MBBZY2xNjJgipTJ3-euZ-50" value="reset() -&amp;gt; deletes model.pkl&lt;br&gt;&lt;div style=&quot;&quot;&gt;&lt;span style=&quot;background-color: transparent; color: light-dark(rgb(0, 0, 0), rgb(255, 255, 255));&quot;&gt;_train() -&amp;gt; saves new&amp;nbsp;&lt;/span&gt;&lt;span style=&quot;background-color: transparent; color: light-dark(rgb(0, 0, 0), rgb(255, 255, 255));&quot;&gt;model.pkl&lt;/span&gt;&lt;/div&gt;" style="text;html=1;align=center;verticalAlign=middle;whiteSpace=wrap;rounded=0;" parent="1" vertex="1">
          <mxGeometry x="1764.01" y="565" width="180" height="30" as="geometry" />
        </mxCell>
        <mxCell id="MBBZY2xNjJgipTJ3-euZ-57" value="_readModelConfigFilepath -&amp;gt; reads modelConfig.json&amp;nbsp;data" style="text;html=1;align=center;verticalAlign=middle;whiteSpace=wrap;rounded=0;" parent="1" vertex="1">
          <mxGeometry x="1649.01" y="770" width="410" height="30" as="geometry" />
        </mxCell>
        <mxCell id="MBBZY2xNjJgipTJ3-euZ-58" value="" style="endArrow=classic;html=1;rounded=0;" parent="1" edge="1">
          <mxGeometry width="50" height="50" relative="1" as="geometry">
            <mxPoint x="1678" y="747" as="sourcePoint" />
            <mxPoint x="2029" y="747" as="targetPoint" />
          </mxGeometry>
        </mxCell>
        <mxCell id="MBBZY2xNjJgipTJ3-euZ-59" value="" style="endArrow=classic;html=1;rounded=0;" parent="1" edge="1">
          <mxGeometry width="50" height="50" relative="1" as="geometry">
            <mxPoint x="2029" y="797" as="sourcePoint" />
            <mxPoint x="1678" y="797.37" as="targetPoint" />
          </mxGeometry>
        </mxCell>
        <mxCell id="MBBZY2xNjJgipTJ3-euZ-60" value="reset() -&amp;gt; deletes modelConfig.json&lt;br&gt;&lt;div style=&quot;&quot;&gt;&lt;span style=&quot;background-color: transparent; color: light-dark(rgb(0, 0, 0), rgb(255, 255, 255));&quot;&gt;_writeModelConfigFilepath(config) -&amp;gt; modifies&amp;nbsp;&lt;/span&gt;&lt;span style=&quot;background-color: transparent; color: light-dark(rgb(0, 0, 0), rgb(255, 255, 255));&quot;&gt;modelConfig.json&lt;/span&gt;&lt;/div&gt;" style="text;html=1;align=center;verticalAlign=middle;whiteSpace=wrap;rounded=0;" parent="1" vertex="1">
          <mxGeometry x="1679.01" y="712" width="350" height="30" as="geometry" />
        </mxCell>
        <mxCell id="MBBZY2xNjJgipTJ3-euZ-62" value="renderTable() -&amp;gt; predict(&lt;span style=&quot;&quot;&gt;requestedIDs&lt;/span&gt;)&lt;br&gt;handleSaveToCsv() -&amp;gt; predict(&lt;span style=&quot;&quot;&gt;requestedIDs&lt;/span&gt;)" style="text;html=1;align=left;verticalAlign=middle;whiteSpace=wrap;rounded=0;" parent="1" vertex="1">
          <mxGeometry x="1068" y="642" width="261.25" height="30" as="geometry" />
        </mxCell>
        <mxCell id="MBBZY2xNjJgipTJ3-euZ-63" value="" style="endArrow=classic;html=1;rounded=0;" parent="1" edge="1">
          <mxGeometry width="50" height="50" relative="1" as="geometry">
            <mxPoint x="1069" y="583" as="sourcePoint" />
            <mxPoint x="1378" y="583" as="targetPoint" />
          </mxGeometry>
        </mxCell>
        <mxCell id="MBBZY2xNjJgipTJ3-euZ-64" value="" style="endArrow=classic;html=1;rounded=0;" parent="1" edge="1">
          <mxGeometry width="50" height="50" relative="1" as="geometry">
            <mxPoint x="1378" y="677" as="sourcePoint" />
            <mxPoint x="1069" y="677.37" as="targetPoint" />
          </mxGeometry>
        </mxCell>
        <mxCell id="MBBZY2xNjJgipTJ3-euZ-67" value="" style="endArrow=classic;html=1;rounded=0;exitX=0.5;exitY=0;exitDx=0;exitDy=0;entryX=0.5;entryY=1;entryDx=0;entryDy=0;entryPerimeter=0;" parent="1" source="MBBZY2xNjJgipTJ3-euZ-11" edge="1" target="kn9Mtql1cBcwYiJTihJY-62">
          <mxGeometry width="50" height="50" relative="1" as="geometry">
            <mxPoint x="1170" y="210" as="sourcePoint" />
            <mxPoint x="620" y="10" as="targetPoint" />
          </mxGeometry>
        </mxCell>
        <mxCell id="MBBZY2xNjJgipTJ3-euZ-68" value="" style="endArrow=classic;html=1;rounded=0;entryX=0.5;entryY=0;entryDx=0;entryDy=0;exitX=0.72;exitY=0.998;exitDx=0;exitDy=0;exitPerimeter=0;" parent="1" source="kn9Mtql1cBcwYiJTihJY-62" target="kn9Mtql1cBcwYiJTihJY-33" edge="1">
          <mxGeometry width="50" height="50" relative="1" as="geometry">
            <mxPoint x="970" y="210" as="sourcePoint" />
            <mxPoint x="690" y="564" as="targetPoint" />
          </mxGeometry>
        </mxCell>
        <mxCell id="MBBZY2xNjJgipTJ3-euZ-69" value="" style="endArrow=classic;html=1;rounded=0;entryX=0.855;entryY=1;entryDx=0;entryDy=-4.35;exitX=0.538;exitY=-0.007;exitDx=0;exitDy=0;entryPerimeter=0;exitPerimeter=0;" parent="1" source="kn9Mtql1cBcwYiJTihJY-33" target="kn9Mtql1cBcwYiJTihJY-62" edge="1">
          <mxGeometry width="50" height="50" relative="1" as="geometry">
            <mxPoint x="890" y="530" as="sourcePoint" />
            <mxPoint x="1100" y="200" as="targetPoint" />
          </mxGeometry>
        </mxCell>
        <mxCell id="MBBZY2xNjJgipTJ3-euZ-70" value="INSERT&lt;br&gt;DELETE" style="text;html=1;align=center;verticalAlign=middle;whiteSpace=wrap;rounded=0;" parent="1" vertex="1">
          <mxGeometry x="520" y="203" width="90" height="80" as="geometry" />
        </mxCell>
        <mxCell id="MBBZY2xNjJgipTJ3-euZ-71" value="SELECT" style="text;html=1;align=center;verticalAlign=middle;whiteSpace=wrap;rounded=0;" parent="1" vertex="1">
          <mxGeometry x="1060" y="220" width="90" height="30" as="geometry" />
        </mxCell>
        <mxCell id="MBBZY2xNjJgipTJ3-euZ-72" value="" style="endArrow=classic;html=1;rounded=0;exitX=0.75;exitY=0;exitDx=0;exitDy=0;entryX=0.25;entryY=0;entryDx=0;entryDy=0;" parent="1" source="MBBZY2xNjJgipTJ3-euZ-11" target="kn9Mtql1cBcwYiJTihJY-39" edge="1">
          <mxGeometry width="50" height="50" relative="1" as="geometry">
            <mxPoint x="1205" y="340" as="sourcePoint" />
            <mxPoint x="1330" y="360" as="targetPoint" />
            <Array as="points">
              <mxPoint x="730" y="360" />
              <mxPoint x="1330" y="360" />
            </Array>
          </mxGeometry>
        </mxCell>
        <mxCell id="MBBZY2xNjJgipTJ3-euZ-74" value="&lt;span style=&quot;text-align: left;&quot;&gt;handleClearDb() -&amp;gt; reset()&lt;/span&gt;" style="text;html=1;align=center;verticalAlign=middle;whiteSpace=wrap;rounded=0;" parent="1" vertex="1">
          <mxGeometry x="987.5" y="330" width="152.5" height="30" as="geometry" />
        </mxCell>
        <mxCell id="EqVA8mEmJYvjOfU4ljU_-3" value="" style="group" vertex="1" connectable="0" parent="1">
          <mxGeometry x="2039" y="530" width="160" height="310" as="geometry" />
        </mxCell>
        <mxCell id="kn9Mtql1cBcwYiJTihJY-52" value="&lt;b&gt;modelConfig.json&lt;/b&gt;&lt;br&gt;&lt;br&gt;json file to keep track of DB changes. Determines to retrain ML or not." style="html=1;whiteSpace=wrap;container=0;" parent="EqVA8mEmJYvjOfU4ljU_-3" vertex="1">
          <mxGeometry x="20" y="190" width="120" height="100" as="geometry" />
        </mxCell>
        <mxCell id="kn9Mtql1cBcwYiJTihJY-55" value="&lt;b&gt;model.pkl&lt;/b&gt;&lt;br&gt;&lt;br&gt;Trained ML saved as .pkl with Joblib" style="html=1;whiteSpace=wrap;container=0;" parent="EqVA8mEmJYvjOfU4ljU_-3" vertex="1">
          <mxGeometry x="20" y="50" width="120" height="80" as="geometry" />
        </mxCell>
        <mxCell id="MBBZY2xNjJgipTJ3-euZ-42" value="" style="rounded=1;whiteSpace=wrap;html=1;fillColor=none;strokeColor=light-dark(#FF0000,#FF0000);fontColor=#ffffff;strokeWidth=4;container=0;" parent="EqVA8mEmJYvjOfU4ljU_-3" vertex="1">
          <mxGeometry width="160" height="310" as="geometry" />
        </mxCell>
        <mxCell id="MBBZY2xNjJgipTJ3-euZ-43" value="Non-Volatile ML model and configuration files" style="text;html=1;align=center;verticalAlign=middle;whiteSpace=wrap;rounded=0;fontColor=light-dark(#FF0000,#FF0000);container=0;" parent="EqVA8mEmJYvjOfU4ljU_-3" vertex="1">
          <mxGeometry x="11.25" width="137.5" height="60" as="geometry" />
        </mxCell>
        <mxCell id="MBBZY2xNjJgipTJ3-euZ-65" value="sqlUpdateActions() -&amp;gt;&amp;nbsp;&lt;span style=&quot;&quot;&gt;incrementDbChangeCounter(x)&lt;br&gt;&lt;span style=&quot;white-space: pre;&quot;&gt;&#x9;&lt;/span&gt;&lt;span style=&quot;white-space: pre;&quot;&gt;&#x9;&lt;/span&gt;&lt;span style=&quot;white-space: pre;&quot;&gt;&#x9;&lt;/span&gt;&lt;span style=&quot;white-space: pre;&quot;&gt;&#x9;&lt;/span&gt;&amp;nbsp; &amp;nbsp; markDirtyIDs(IDs)&lt;/span&gt;&lt;div&gt;sqlInsertActions() -&amp;gt;&amp;nbsp;&lt;span style=&quot;background-color: transparent; color: light-dark(rgb(0, 0, 0), rgb(255, 255, 255));&quot;&gt;incrementDbChangeCounter(x)&lt;/span&gt;&lt;/div&gt;&lt;div&gt;sqlDeleteActions() -&amp;gt;&amp;nbsp;incrementDbChangeCounter(x)&lt;br&gt;&lt;span style=&quot;white-space: pre;&quot;&gt;&#x9;&lt;/span&gt;&lt;span style=&quot;white-space: pre;&quot;&gt;&#x9;&lt;/span&gt;&lt;span style=&quot;white-space: pre;&quot;&gt;&#x9;&lt;/span&gt;&lt;span style=&quot;white-space: pre;&quot;&gt;&#x9;&lt;/span&gt;&amp;nbsp; &amp;nbsp; markDirtyIDs(IDs)&lt;span style=&quot;background-color: transparent; color: light-dark(rgb(0, 0, 0), rgb(255, 255, 255));&quot;&gt;&lt;/span&gt;&lt;/div&gt;" style="text;html=1;align=left;verticalAlign=middle;whiteSpace=wrap;rounded=0;" parent="1" vertex="1">
          <mxGeometry x="1068" y="510" width="340" height="70" as="geometry" />
        </mxCell>
      </root>
    </mxGraphModel>
  </diagram>
</mxfile>
